<svg xmlns="http://www.w3.org/2000/svg" width="75" height="75" style="shape-rendering:geometricPrecision;text-rendering:geometricPrecision;image-rendering:optimizeQuality;fill-rule:evenodd;clip-rule:evenodd"><path style="opacity:.953" fill="#fefffe" d="M8.5-.5h1a1085.126 1085.126 0 0 0 27.5 28 1085.126 1085.126 0 0 0 27.5-28h1a57.456 57.456 0 0 0 9 9v1a1085.174 1085.174 0 0 0-28 27.5 1085.174 1085.174 0 0 0 28 27.5v1a57.458 57.458 0 0 0-9 9h-1a1085.174 1085.174 0 0 0-27.5-28 1085.174 1085.174 0 0 0-27.5 28h-1a57.456 57.456 0 0 0-9-9v-1a1085.126 1085.126 0 0 0 28-27.5A1085.126 1085.126 0 0 0-.5 9.5v-1a57.453 57.453 0 0 0 9-9z"/></svg>